<mxfile host="Electron" agent="Mozilla/5.0 (Macintosh; Intel Mac OS X 10_15_7) AppleWebKit/537.36 (KHTML, like Gecko) draw.io/24.7.17 Chrome/128.0.6613.36 Electron/32.0.1 Safari/537.36" version="24.7.17">
  <diagram name="apollo-graphos" id="kQctifhRov1kiLEnyakP">
    <mxGraphModel dx="3358" dy="2095" grid="1" gridSize="10" guides="1" tooltips="1" connect="1" arrows="1" fold="1" page="0" pageScale="1" pageWidth="850" pageHeight="1100" math="0" shadow="0">
      <root>
        <mxCell id="0" />
        <mxCell id="1" parent="0" />
        <mxCell id="7K0tPXxNf_VTqVGyJIpa-1" style="edgeStyle=orthogonalEdgeStyle;shape=connector;rounded=1;orthogonalLoop=1;jettySize=auto;html=1;entryX=0;entryY=0.5;entryDx=0;entryDy=0;labelBackgroundColor=none;strokeColor=default;fontFamily=Helvetica;fontSize=11;fontColor=default;endArrow=blockThin;endFill=1;startSize=8;endSize=8;sourcePerimeterSpacing=8;targetPerimeterSpacing=8;flowAnimation=1;" parent="1" source="7K0tPXxNf_VTqVGyJIpa-3" target="7K0tPXxNf_VTqVGyJIpa-14" edge="1">
          <mxGeometry relative="1" as="geometry" />
        </mxCell>
        <mxCell id="7K0tPXxNf_VTqVGyJIpa-2" value="init" style="edgeLabel;html=1;align=center;verticalAlign=middle;resizable=0;points=[];fontSize=11;fontFamily=Helvetica;fontColor=default;labelBackgroundColor=none;" parent="7K0tPXxNf_VTqVGyJIpa-1" vertex="1" connectable="0">
          <mxGeometry x="-0.497" relative="1" as="geometry">
            <mxPoint y="-10" as="offset" />
          </mxGeometry>
        </mxCell>
        <mxCell id="7K0tPXxNf_VTqVGyJIpa-3" value="&lt;b&gt;Git PR&lt;/b&gt;" style="rounded=1;whiteSpace=wrap;html=1;" parent="1" vertex="1">
          <mxGeometry x="80" y="85" width="60" height="30" as="geometry" />
        </mxCell>
        <mxCell id="7K0tPXxNf_VTqVGyJIpa-4" style="edgeStyle=orthogonalEdgeStyle;orthogonalLoop=1;jettySize=auto;html=1;entryX=0;entryY=0.5;entryDx=0;entryDy=0;endArrow=blockThin;startSize=8;endSize=8;sourcePerimeterSpacing=8;targetPerimeterSpacing=8;endFill=1;flowAnimation=1;labelBackgroundColor=none;" parent="1" source="7K0tPXxNf_VTqVGyJIpa-6" target="7K0tPXxNf_VTqVGyJIpa-3" edge="1">
          <mxGeometry relative="1" as="geometry" />
        </mxCell>
        <mxCell id="7K0tPXxNf_VTqVGyJIpa-5" value="create" style="edgeLabel;html=1;align=center;verticalAlign=middle;resizable=0;points=[];labelBackgroundColor=none;" parent="7K0tPXxNf_VTqVGyJIpa-4" vertex="1" connectable="0">
          <mxGeometry x="-0.5179" y="1" relative="1" as="geometry">
            <mxPoint x="29" y="-13" as="offset" />
          </mxGeometry>
        </mxCell>
        <mxCell id="7K0tPXxNf_VTqVGyJIpa-6" value="&lt;b&gt;Dev&lt;/b&gt;" style="html=1;verticalLabelPosition=bottom;align=center;labelBackgroundColor=none;verticalAlign=top;strokeWidth=1;strokeColor=#0080F0;shadow=0;dashed=0;shape=mxgraph.ios7.icons.user;aspect=fixed;fillColor=none;" parent="1" vertex="1">
          <mxGeometry x="-120" y="76" width="48" height="48" as="geometry" />
        </mxCell>
        <mxCell id="7K0tPXxNf_VTqVGyJIpa-7" style="edgeStyle=orthogonalEdgeStyle;shape=connector;rounded=1;orthogonalLoop=1;jettySize=auto;html=1;entryX=0.5;entryY=1;entryDx=0;entryDy=0;labelBackgroundColor=none;strokeColor=default;fontFamily=Helvetica;fontSize=11;fontColor=default;endArrow=blockThin;endFill=1;startSize=8;endSize=8;sourcePerimeterSpacing=8;targetPerimeterSpacing=8;flowAnimation=1;exitX=0.5;exitY=0;exitDx=0;exitDy=0;" parent="1" source="7K0tPXxNf_VTqVGyJIpa-14" target="7K0tPXxNf_VTqVGyJIpa-15" edge="1">
          <mxGeometry relative="1" as="geometry" />
        </mxCell>
        <mxCell id="7K0tPXxNf_VTqVGyJIpa-9" value="rover auth" style="edgeLabel;html=1;align=center;verticalAlign=middle;resizable=0;points=[];labelBackgroundColor=none;" parent="7K0tPXxNf_VTqVGyJIpa-7" vertex="1" connectable="0">
          <mxGeometry x="-0.5776" y="-1" relative="1" as="geometry">
            <mxPoint x="30" y="7" as="offset" />
          </mxGeometry>
        </mxCell>
        <mxCell id="7K0tPXxNf_VTqVGyJIpa-10" value="" style="edgeStyle=orthogonalEdgeStyle;shape=connector;rounded=1;orthogonalLoop=1;jettySize=auto;html=1;labelBackgroundColor=none;strokeColor=default;fontFamily=Helvetica;fontSize=11;fontColor=default;endArrow=blockThin;endFill=1;startSize=8;endSize=8;sourcePerimeterSpacing=8;targetPerimeterSpacing=8;flowAnimation=1;exitX=1;exitY=0.5;exitDx=0;exitDy=0;entryX=0;entryY=0.5;entryDx=0;entryDy=0;" parent="1" source="7K0tPXxNf_VTqVGyJIpa-53" target="7K0tPXxNf_VTqVGyJIpa-20" edge="1">
          <mxGeometry relative="1" as="geometry">
            <mxPoint x="471" y="100" as="sourcePoint" />
            <mxPoint x="630.9999999999995" y="100" as="targetPoint" />
          </mxGeometry>
        </mxCell>
        <mxCell id="7K0tPXxNf_VTqVGyJIpa-11" value="rover supergraph compose" style="edgeLabel;html=1;align=center;verticalAlign=middle;resizable=0;points=[];fontSize=11;fontFamily=Helvetica;fontColor=default;labelBackgroundColor=none;" parent="7K0tPXxNf_VTqVGyJIpa-10" vertex="1" connectable="0">
          <mxGeometry x="-0.7381" y="-1" relative="1" as="geometry">
            <mxPoint x="69" y="-11" as="offset" />
          </mxGeometry>
        </mxCell>
        <mxCell id="7K0tPXxNf_VTqVGyJIpa-12" value="rover subgraph lint" style="edgeStyle=orthogonalEdgeStyle;shape=connector;rounded=1;orthogonalLoop=1;jettySize=auto;html=1;entryX=0.5;entryY=0;entryDx=0;entryDy=0;labelBackgroundColor=none;strokeColor=default;fontFamily=Helvetica;fontSize=11;fontColor=default;endArrow=blockThin;endFill=1;startSize=8;endSize=8;sourcePerimeterSpacing=8;targetPerimeterSpacing=8;flowAnimation=1;" parent="1" source="7K0tPXxNf_VTqVGyJIpa-14" target="7K0tPXxNf_VTqVGyJIpa-46" edge="1">
          <mxGeometry x="-0.1868" y="51" relative="1" as="geometry">
            <mxPoint as="offset" />
          </mxGeometry>
        </mxCell>
        <mxCell id="7K0tPXxNf_VTqVGyJIpa-13" style="edgeStyle=orthogonalEdgeStyle;shape=connector;rounded=1;orthogonalLoop=1;jettySize=auto;html=1;entryX=0;entryY=0.5;entryDx=0;entryDy=0;labelBackgroundColor=none;strokeColor=default;fontFamily=Helvetica;fontSize=11;fontColor=default;endArrow=blockThin;endFill=1;startSize=8;endSize=8;sourcePerimeterSpacing=8;targetPerimeterSpacing=8;flowAnimation=1;exitX=1;exitY=0.5;exitDx=0;exitDy=0;" parent="1" source="7K0tPXxNf_VTqVGyJIpa-14" target="7K0tPXxNf_VTqVGyJIpa-53" edge="1">
          <mxGeometry relative="1" as="geometry" />
        </mxCell>
        <mxCell id="7K0tPXxNf_VTqVGyJIpa-14" value="&lt;b&gt;Rover CLI&lt;/b&gt;" style="whiteSpace=wrap;html=1;rounded=1;" parent="1" vertex="1">
          <mxGeometry x="359" y="85" width="80" height="30" as="geometry" />
        </mxCell>
        <mxCell id="7K0tPXxNf_VTqVGyJIpa-15" value="&lt;b&gt;Apollo&lt;/b&gt;&lt;br&gt;GraphOS" style="whiteSpace=wrap;html=1;rounded=1;" parent="1" vertex="1">
          <mxGeometry x="364" y="-80" width="70" height="40" as="geometry" />
        </mxCell>
        <mxCell id="7K0tPXxNf_VTqVGyJIpa-16" value="" style="edgeStyle=orthogonalEdgeStyle;shape=connector;rounded=1;orthogonalLoop=1;jettySize=auto;html=1;labelBackgroundColor=none;strokeColor=default;fontFamily=Helvetica;fontSize=11;fontColor=default;endArrow=blockThin;endFill=1;startSize=8;endSize=8;sourcePerimeterSpacing=8;targetPerimeterSpacing=8;flowAnimation=1;entryX=0.5;entryY=0;entryDx=0;entryDy=0;" parent="1" source="7K0tPXxNf_VTqVGyJIpa-20" target="7K0tPXxNf_VTqVGyJIpa-21" edge="1">
          <mxGeometry relative="1" as="geometry" />
        </mxCell>
        <mxCell id="7K0tPXxNf_VTqVGyJIpa-17" value="build&amp;nbsp;Supergraph schema" style="edgeLabel;html=1;align=center;verticalAlign=middle;resizable=0;points=[];fontSize=11;fontFamily=Helvetica;fontColor=default;labelBackgroundColor=none;" parent="7K0tPXxNf_VTqVGyJIpa-16" vertex="1" connectable="0">
          <mxGeometry x="-0.2222" y="2" relative="1" as="geometry">
            <mxPoint x="70" y="2" as="offset" />
          </mxGeometry>
        </mxCell>
        <mxCell id="7K0tPXxNf_VTqVGyJIpa-18" value="" style="edgeStyle=orthogonalEdgeStyle;shape=connector;rounded=1;orthogonalLoop=1;jettySize=auto;html=1;labelBackgroundColor=none;strokeColor=default;fontFamily=Helvetica;fontSize=11;fontColor=default;endArrow=blockThin;endFill=1;startSize=8;endSize=8;sourcePerimeterSpacing=8;targetPerimeterSpacing=8;flowAnimation=1;exitX=1;exitY=0.5;exitDx=0;exitDy=0;entryX=0;entryY=0.5;entryDx=0;entryDy=0;" parent="1" source="7K0tPXxNf_VTqVGyJIpa-20" target="7K0tPXxNf_VTqVGyJIpa-40" edge="1">
          <mxGeometry relative="1" as="geometry">
            <mxPoint x="1028" y="100" as="sourcePoint" />
          </mxGeometry>
        </mxCell>
        <mxCell id="7K0tPXxNf_VTqVGyJIpa-19" value="rover subgraph publish" style="edgeLabel;html=1;align=center;verticalAlign=middle;resizable=0;points=[];fontSize=11;fontFamily=Helvetica;fontColor=default;labelBackgroundColor=none;" parent="7K0tPXxNf_VTqVGyJIpa-18" vertex="1" connectable="0">
          <mxGeometry x="-0.6667" y="-2" relative="1" as="geometry">
            <mxPoint x="55" y="-12" as="offset" />
          </mxGeometry>
        </mxCell>
        <mxCell id="7K0tPXxNf_VTqVGyJIpa-20" value="composition of all versions" style="whiteSpace=wrap;html=1;rounded=1;" parent="1" vertex="1">
          <mxGeometry x="888" y="85" width="160" height="30" as="geometry" />
        </mxCell>
        <mxCell id="7K0tPXxNf_VTqVGyJIpa-21" value="(Subgraph schema A and B + routing machinery)" style="whiteSpace=wrap;html=1;rounded=1;" parent="1" vertex="1">
          <mxGeometry x="828" y="220" width="280" height="30" as="geometry" />
        </mxCell>
        <mxCell id="7K0tPXxNf_VTqVGyJIpa-22" value="&lt;b&gt;Apollo Uplink&lt;/b&gt;" style="whiteSpace=wrap;html=1;rounded=1;" parent="1" vertex="1">
          <mxGeometry x="1505" y="85" width="100" height="30" as="geometry" />
        </mxCell>
        <mxCell id="7K0tPXxNf_VTqVGyJIpa-23" value="" style="edgeStyle=orthogonalEdgeStyle;shape=connector;rounded=1;orthogonalLoop=1;jettySize=auto;html=1;labelBackgroundColor=none;strokeColor=default;fontFamily=Helvetica;fontSize=11;fontColor=default;endArrow=blockThin;endFill=1;startSize=8;endSize=8;sourcePerimeterSpacing=8;targetPerimeterSpacing=8;flowAnimation=1;entryX=0.5;entryY=0;entryDx=0;entryDy=0;" parent="1" source="7K0tPXxNf_VTqVGyJIpa-24" target="7K0tPXxNf_VTqVGyJIpa-26" edge="1">
          <mxGeometry relative="1" as="geometry" />
        </mxCell>
        <mxCell id="7K0tPXxNf_VTqVGyJIpa-24" value="&lt;b&gt;Router Service&lt;/b&gt;" style="whiteSpace=wrap;html=1;rounded=1;" parent="1" vertex="1">
          <mxGeometry x="1992" y="1" width="110" height="30" as="geometry" />
        </mxCell>
        <mxCell id="7K0tPXxNf_VTqVGyJIpa-25" value="" style="edgeStyle=orthogonalEdgeStyle;shape=connector;rounded=1;orthogonalLoop=1;jettySize=auto;html=1;labelBackgroundColor=none;strokeColor=default;fontFamily=Helvetica;fontSize=11;fontColor=default;endArrow=blockThin;endFill=1;startSize=8;endSize=8;sourcePerimeterSpacing=8;targetPerimeterSpacing=8;flowAnimation=1;entryX=0.5;entryY=0;entryDx=0;entryDy=0;" parent="1" source="7K0tPXxNf_VTqVGyJIpa-26" target="7K0tPXxNf_VTqVGyJIpa-27" edge="1">
          <mxGeometry relative="1" as="geometry" />
        </mxCell>
        <mxCell id="7K0tPXxNf_VTqVGyJIpa-26" value="&lt;b&gt;Supergraph Service&lt;/b&gt;" style="whiteSpace=wrap;html=1;rounded=1;" parent="1" vertex="1">
          <mxGeometry x="1977" y="86" width="140" height="30" as="geometry" />
        </mxCell>
        <mxCell id="7K0tPXxNf_VTqVGyJIpa-27" value="&lt;b&gt;Execution Service&lt;/b&gt;" style="whiteSpace=wrap;html=1;rounded=1;" parent="1" vertex="1">
          <mxGeometry x="1982" y="165" width="130" height="30" as="geometry" />
        </mxCell>
        <mxCell id="7K0tPXxNf_VTqVGyJIpa-30" value="&lt;b&gt;Subgraph B&lt;/b&gt;" style="whiteSpace=wrap;html=1;rounded=1;" parent="1" vertex="1">
          <mxGeometry x="2073" y="360" width="90" height="30" as="geometry" />
        </mxCell>
        <mxCell id="7K0tPXxNf_VTqVGyJIpa-31" value="&lt;b&gt;Subgraph A&lt;/b&gt;" style="whiteSpace=wrap;html=1;rounded=1;" parent="1" vertex="1">
          <mxGeometry x="1926" y="360" width="90" height="30" as="geometry" />
        </mxCell>
        <mxCell id="7K0tPXxNf_VTqVGyJIpa-32" style="edgeStyle=orthogonalEdgeStyle;shape=connector;rounded=1;orthogonalLoop=1;jettySize=auto;html=1;entryX=1;entryY=0.5;entryDx=0;entryDy=0;labelBackgroundColor=none;strokeColor=default;fontFamily=Helvetica;fontSize=11;fontColor=default;endArrow=blockThin;endFill=1;startSize=8;endSize=8;sourcePerimeterSpacing=8;targetPerimeterSpacing=8;flowAnimation=1;" parent="1" source="7K0tPXxNf_VTqVGyJIpa-34" target="7K0tPXxNf_VTqVGyJIpa-22" edge="1">
          <mxGeometry relative="1" as="geometry" />
        </mxCell>
        <mxCell id="7K0tPXxNf_VTqVGyJIpa-33" value="polls config changes" style="edgeLabel;html=1;align=center;verticalAlign=middle;resizable=0;points=[];fontSize=11;fontFamily=Helvetica;fontColor=default;labelBackgroundColor=none;" parent="7K0tPXxNf_VTqVGyJIpa-32" vertex="1" connectable="0">
          <mxGeometry x="-0.2082" y="-2" relative="1" as="geometry">
            <mxPoint x="1" y="-13" as="offset" />
          </mxGeometry>
        </mxCell>
        <mxCell id="7K0tPXxNf_VTqVGyJIpa-58" style="edgeStyle=orthogonalEdgeStyle;shape=connector;rounded=1;orthogonalLoop=1;jettySize=auto;html=1;exitX=0.5;exitY=1;exitDx=0;exitDy=0;exitPerimeter=0;entryX=0.5;entryY=0;entryDx=0;entryDy=0;strokeColor=default;align=center;verticalAlign=middle;fontFamily=Helvetica;fontSize=11;fontColor=default;labelBackgroundColor=none;startSize=8;endArrow=blockThin;endFill=1;endSize=8;flowAnimation=1;sourcePerimeterSpacing=8;targetPerimeterSpacing=8;" parent="1" source="7K0tPXxNf_VTqVGyJIpa-34" target="7K0tPXxNf_VTqVGyJIpa-31" edge="1">
          <mxGeometry relative="1" as="geometry" />
        </mxCell>
        <mxCell id="7K0tPXxNf_VTqVGyJIpa-59" style="edgeStyle=orthogonalEdgeStyle;shape=connector;rounded=1;orthogonalLoop=1;jettySize=auto;html=1;exitX=0.5;exitY=1;exitDx=0;exitDy=0;exitPerimeter=0;entryX=0.5;entryY=0;entryDx=0;entryDy=0;strokeColor=default;align=center;verticalAlign=middle;fontFamily=Helvetica;fontSize=11;fontColor=default;labelBackgroundColor=none;startSize=8;endArrow=blockThin;endFill=1;endSize=8;flowAnimation=1;sourcePerimeterSpacing=8;targetPerimeterSpacing=8;" parent="1" source="7K0tPXxNf_VTqVGyJIpa-34" target="7K0tPXxNf_VTqVGyJIpa-30" edge="1">
          <mxGeometry relative="1" as="geometry" />
        </mxCell>
        <mxCell id="7K0tPXxNf_VTqVGyJIpa-34" value="&lt;b&gt;Apollo Router&lt;/b&gt;" style="shape=umlFrame;whiteSpace=wrap;html=1;pointerEvents=0;fontFamily=Helvetica;fontSize=11;fontColor=default;width=91;height=30;points=[[0,0.5,0,0,0],[0.5,0,0,0,0],[0.5,1,0,0,0],[1,0.5,0,0,0]];" parent="1" vertex="1">
          <mxGeometry x="1870" y="-20" width="349" height="240" as="geometry" />
        </mxCell>
        <mxCell id="7K0tPXxNf_VTqVGyJIpa-35" style="edgeStyle=orthogonalEdgeStyle;shape=connector;rounded=1;orthogonalLoop=1;jettySize=auto;html=1;entryX=0.5;entryY=0;entryDx=0;entryDy=0;labelBackgroundColor=none;strokeColor=default;fontFamily=Helvetica;fontSize=11;fontColor=default;endArrow=blockThin;endFill=1;startSize=8;endSize=8;sourcePerimeterSpacing=8;targetPerimeterSpacing=8;flowAnimation=1;entryPerimeter=0;" parent="1" source="7K0tPXxNf_VTqVGyJIpa-36" target="7K0tPXxNf_VTqVGyJIpa-34" edge="1">
          <mxGeometry relative="1" as="geometry" />
        </mxCell>
        <mxCell id="7K0tPXxNf_VTqVGyJIpa-36" value="&lt;b&gt;Client&lt;/b&gt;" style="html=1;verticalLabelPosition=bottom;align=center;labelBackgroundColor=none;verticalAlign=top;strokeWidth=2;strokeColor=#0080F0;shadow=0;dashed=0;shape=mxgraph.ios7.icons.user;aspect=fixed;fillColor=none;" parent="1" vertex="1">
          <mxGeometry x="2020.5" y="-139" width="48" height="48" as="geometry" />
        </mxCell>
        <mxCell id="7K0tPXxNf_VTqVGyJIpa-37" style="edgeStyle=orthogonalEdgeStyle;shape=connector;rounded=1;orthogonalLoop=1;jettySize=auto;html=1;entryX=0;entryY=0.5;entryDx=0;entryDy=0;labelBackgroundColor=none;strokeColor=default;fontFamily=Helvetica;fontSize=11;fontColor=default;endArrow=blockThin;endFill=1;startSize=8;endSize=8;sourcePerimeterSpacing=8;targetPerimeterSpacing=8;flowAnimation=1;" parent="1" source="7K0tPXxNf_VTqVGyJIpa-40" target="7K0tPXxNf_VTqVGyJIpa-22" edge="1">
          <mxGeometry relative="1" as="geometry" />
        </mxCell>
        <mxCell id="7K0tPXxNf_VTqVGyJIpa-38" value="update config" style="edgeLabel;html=1;align=center;verticalAlign=middle;resizable=0;points=[];fontSize=11;fontFamily=Helvetica;fontColor=default;labelBackgroundColor=none;" parent="7K0tPXxNf_VTqVGyJIpa-37" vertex="1" connectable="0">
          <mxGeometry x="-0.5647" y="3" relative="1" as="geometry">
            <mxPoint x="28" y="-11" as="offset" />
          </mxGeometry>
        </mxCell>
        <mxCell id="7K0tPXxNf_VTqVGyJIpa-39" style="edgeStyle=orthogonalEdgeStyle;shape=connector;rounded=1;orthogonalLoop=1;jettySize=auto;html=1;entryX=0.5;entryY=0;entryDx=0;entryDy=0;entryPerimeter=0;labelBackgroundColor=none;strokeColor=default;fontFamily=Helvetica;fontSize=11;fontColor=default;endArrow=blockThin;endFill=1;startSize=8;endSize=8;sourcePerimeterSpacing=8;targetPerimeterSpacing=8;flowAnimation=1;" parent="1" source="7K0tPXxNf_VTqVGyJIpa-40" target="7K0tPXxNf_VTqVGyJIpa-52" edge="1">
          <mxGeometry relative="1" as="geometry" />
        </mxCell>
        <mxCell id="7K0tPXxNf_VTqVGyJIpa-40" value="&lt;b&gt;Schema Registry&lt;/b&gt;" style="whiteSpace=wrap;html=1;rounded=1;" parent="1" vertex="1">
          <mxGeometry x="1245" y="85" width="120" height="30" as="geometry" />
        </mxCell>
        <mxCell id="7K0tPXxNf_VTqVGyJIpa-41" style="edgeStyle=orthogonalEdgeStyle;shape=connector;rounded=1;orthogonalLoop=1;jettySize=auto;html=1;entryX=1;entryY=0.5;entryDx=0;entryDy=0;labelBackgroundColor=none;strokeColor=default;fontFamily=Helvetica;fontSize=11;fontColor=default;endArrow=blockThin;endFill=1;startSize=8;endSize=8;sourcePerimeterSpacing=8;targetPerimeterSpacing=8;exitX=0.499;exitY=0;exitDx=0;exitDy=0;exitPerimeter=0;flowAnimation=1;" parent="1" source="7K0tPXxNf_VTqVGyJIpa-43" target="7K0tPXxNf_VTqVGyJIpa-15" edge="1">
          <mxGeometry relative="1" as="geometry">
            <mxPoint x="1004" y="11" as="sourcePoint" />
          </mxGeometry>
        </mxCell>
        <mxCell id="7K0tPXxNf_VTqVGyJIpa-42" value="Auth TOKEN" style="edgeLabel;html=1;align=center;verticalAlign=middle;resizable=0;points=[];fontSize=11;fontFamily=Helvetica;fontColor=default;labelBackgroundColor=none;" parent="7K0tPXxNf_VTqVGyJIpa-41" vertex="1" connectable="0">
          <mxGeometry x="-0.8953" y="-1" relative="1" as="geometry">
            <mxPoint x="-45" as="offset" />
          </mxGeometry>
        </mxCell>
        <mxCell id="7K0tPXxNf_VTqVGyJIpa-43" value="&lt;b&gt;GraphOS&lt;/b&gt;" style="shape=umlFrame;whiteSpace=wrap;html=1;pointerEvents=0;fontFamily=Helvetica;fontSize=11;fontColor=default;width=91;height=30;" parent="1" vertex="1">
          <mxGeometry x="538" y="11" width="1110" height="283" as="geometry" />
        </mxCell>
        <mxCell id="7K0tPXxNf_VTqVGyJIpa-44" value="" style="edgeStyle=orthogonalEdgeStyle;shape=connector;rounded=1;orthogonalLoop=1;jettySize=auto;html=1;labelBackgroundColor=none;strokeColor=default;fontFamily=Helvetica;fontSize=11;fontColor=default;endArrow=blockThin;endFill=1;startSize=8;endSize=8;sourcePerimeterSpacing=8;targetPerimeterSpacing=8;flowAnimation=1;entryX=0.5;entryY=0;entryDx=0;entryDy=0;" parent="1" source="7K0tPXxNf_VTqVGyJIpa-46" target="7K0tPXxNf_VTqVGyJIpa-49" edge="1">
          <mxGeometry relative="1" as="geometry" />
        </mxCell>
        <mxCell id="7K0tPXxNf_VTqVGyJIpa-45" value="rover subgraph check" style="edgeLabel;html=1;align=center;verticalAlign=middle;resizable=0;points=[];fontSize=11;fontFamily=Helvetica;fontColor=default;labelBackgroundColor=none;" parent="7K0tPXxNf_VTqVGyJIpa-44" vertex="1" connectable="0">
          <mxGeometry x="-0.2083" y="-1" relative="1" as="geometry">
            <mxPoint x="61" as="offset" />
          </mxGeometry>
        </mxCell>
        <mxCell id="7K0tPXxNf_VTqVGyJIpa-46" value="Subgraph Linting" style="whiteSpace=wrap;html=1;rounded=1;" parent="1" vertex="1">
          <mxGeometry x="344" y="214" width="110" height="30" as="geometry" />
        </mxCell>
        <mxCell id="7K0tPXxNf_VTqVGyJIpa-47" style="edgeStyle=orthogonalEdgeStyle;shape=connector;rounded=1;orthogonalLoop=1;jettySize=auto;html=1;entryX=0.5;entryY=0;entryDx=0;entryDy=0;labelBackgroundColor=none;strokeColor=default;fontFamily=Helvetica;fontSize=11;fontColor=default;endArrow=blockThin;endFill=1;startSize=8;endSize=8;sourcePerimeterSpacing=8;targetPerimeterSpacing=8;flowAnimation=1;" parent="1" source="7K0tPXxNf_VTqVGyJIpa-49" target="7K0tPXxNf_VTqVGyJIpa-51" edge="1">
          <mxGeometry relative="1" as="geometry" />
        </mxCell>
        <mxCell id="7K0tPXxNf_VTqVGyJIpa-48" value="rover contract" style="edgeLabel;html=1;align=center;verticalAlign=middle;resizable=0;points=[];fontSize=11;fontFamily=Helvetica;fontColor=default;labelBackgroundColor=none;" parent="7K0tPXxNf_VTqVGyJIpa-47" vertex="1" connectable="0">
          <mxGeometry x="-0.434" y="2" relative="1" as="geometry">
            <mxPoint x="38" as="offset" />
          </mxGeometry>
        </mxCell>
        <mxCell id="7K0tPXxNf_VTqVGyJIpa-49" value="Subgraph Validation" style="whiteSpace=wrap;html=1;rounded=1;" parent="1" vertex="1">
          <mxGeometry x="334" y="354" width="130" height="30" as="geometry" />
        </mxCell>
        <mxCell id="7K0tPXxNf_VTqVGyJIpa-50" value="&lt;b&gt;Rover&lt;/b&gt;" style="shape=umlFrame;whiteSpace=wrap;html=1;pointerEvents=0;fontFamily=Helvetica;fontSize=11;fontColor=default;width=70;height=30;" parent="1" vertex="1">
          <mxGeometry x="279" y="11" width="240" height="530" as="geometry" />
        </mxCell>
        <mxCell id="7K0tPXxNf_VTqVGyJIpa-51" value="Downstream Subgraphs Validation" style="whiteSpace=wrap;html=1;rounded=1;" parent="1" vertex="1">
          <mxGeometry x="294" y="475" width="210" height="30" as="geometry" />
        </mxCell>
        <mxCell id="7K0tPXxNf_VTqVGyJIpa-52" value="&lt;br&gt;DB" style="strokeWidth=1;html=1;shape=mxgraph.flowchart.database;whiteSpace=wrap;fillColor=default;" parent="1" vertex="1">
          <mxGeometry x="1275" y="205" width="60" height="60" as="geometry" />
        </mxCell>
        <mxCell id="7K0tPXxNf_VTqVGyJIpa-53" value="&lt;b&gt;CI/CD Pipeline&lt;/b&gt;" style="whiteSpace=wrap;html=1;rounded=1;" parent="1" vertex="1">
          <mxGeometry x="574" y="85" width="110" height="30" as="geometry" />
        </mxCell>
        <mxCell id="7K0tPXxNf_VTqVGyJIpa-57" value="&lt;b&gt;Apollo&lt;/b&gt;" style="shape=umlFrame;whiteSpace=wrap;html=1;pointerEvents=0;fontFamily=Helvetica;fontSize=11;fontColor=default;width=91;height=30;" parent="1" vertex="1">
          <mxGeometry x="267" y="-139" width="1410" height="699" as="geometry" />
        </mxCell>
        <mxCell id="aF-dxrhO6LQCj392bUL2-1" value="&lt;b&gt;Insights&lt;/b&gt;" style="whiteSpace=wrap;html=1;rounded=1;" parent="1" vertex="1">
          <mxGeometry x="1535" y="220" width="70" height="30" as="geometry" />
        </mxCell>
      </root>
    </mxGraphModel>
  </diagram>
</mxfile>
